<?xml version="1.0" standalone="no"?>
<!DOCTYPE svg PUBLIC "-//W3C//DTD SVG 20010904//EN"
 "http://www.w3.org/TR/2001/REC-SVG-20010904/DTD/svg10.dtd">
<svg version="1.0" xmlns="http://www.w3.org/2000/svg"
 width="800.000000pt" height="500.000000pt" viewBox="0 0 800.000000 500.000000"
 preserveAspectRatio="xMidYMid meet">

<g transform="translate(0.000000,500.000000) scale(0.100000,-0.100000)"
fill="#000000" stroke="none">
<path d="M6160 2680 l0 -420 79 0 79 0 6 31 6 31 35 -30 c79 -70 218 -49 285
41 40 55 65 167 57 261 -9 101 -33 162 -82 212 -71 70 -186 81 -259 23 l-26
-20 0 145 0 146 -90 0 -90 0 0 -420z m329 18 c27 -28 34 -69 30 -173 -4 -81
-6 -88 -32 -111 -35 -30 -85 -31 -121 -3 -26 20 -26 22 -26 145 0 111 2 126
20 144 29 29 102 28 129 -2z"/>
<path d="M4740 2660 l0 -400 95 0 95 0 0 170 0 170 145 0 145 0 0 -170 0 -171
93 3 92 3 3 398 2 397 -95 0 -94 0 -3 -157 -3 -158 -142 -3 -143 -3 0 161 0
160 -95 0 -95 0 0 -400z"/>
<path d="M5520 2638 c0 -223 7 -275 37 -317 29 -40 99 -71 158 -71 54 0 121
26 145 55 14 17 15 16 20 -11 l5 -29 83 0 83 0 2 293 2 292 -92 0 -93 0 0
-208 c0 -236 -1 -239 -78 -249 -34 -5 -45 -1 -66 20 l-26 26 0 206 0 205 -90
0 -90 0 0 -212z"/>
</g>
</svg>
